PathFileType	4	(X/Y/Z)	/Users/itak/Documents/Research/Walk-IL/dataset/trc/00322_00011.trc
DataRate	CameraRate	NumFrames	NumMarkers	Units	OrigDataRate	OrigDataStartFrame	OrigNumFrames
100.000000	100.000000	4	57	mm	100.000000	402	537
Frame#	Time	LPSI			L3			STRN			T10			C7			CLAV			RBAK			LBAK			LSHO			LUPA			LAEL			LAOL			LWTS			LWPS			LFRA			LHPS			RSHO			RUPA			RAEL			RAOL			RWTS			RWPS			RFRA			RIFD			RHTS			RHPS			RBHD			LFHD			RFHD			LBHD			LHIP			RASI			LASI			LKNE			LTHI			LANK			LTIP			LTOE			LMT1			LMT5			LHEE			RKNE			RANK			RTIP			RTOE			RMT1			RMT5			RHEE			RPSI			RTHI			RHIP			LHTS			LIFD			*53			*54			*55			*56			
		X1	Y1	Z1	X2	Y2	Z2	X3	Y3	Z3	X4	Y4	Z4	X5	Y5	Z5	X6	Y6	Z6	X7	Y7	Z7	X8	Y8	Z8	X9	Y9	Z9	X10	Y10	Z10	X11	Y11	Z11	X12	Y12	Z12	X13	Y13	Z13	X14	Y14	Z14	X15	Y15	Z15	X16	Y16	Z16	X17	Y17	Z17	X18	Y18	Z18	X19	Y19	Z19	X20	Y20	Z20	X21	Y21	Z21	X22	Y22	Z22	X23	Y23	Z23	X24	Y24	Z24	X25	Y25	Z25	X26	Y26	Z26	X27	Y27	Z27	X28	Y28	Z28	X29	Y29	Z29	X30	Y30	Z30	X31	Y31	Z31	X32	Y32	Z32	X33	Y33	Z33	X34	Y34	Z34	X35	Y35	Z35	X36	Y36	Z36	X37	Y37	Z37	X38	Y38	Z38	X39	Y39	Z39	X40	Y40	Z40	X41	Y41	Z41	X42	Y42	Z42	X43	Y43	Z43	X44	Y44	Z44	X45	Y45	Z45	X46	Y46	Z46	X47	Y47	Z47	X48	Y48	Z48	X49	Y49	Z49	X50	Y50	Z50	X51	Y51	Z51	X52	Y52	Z52	X53	Y53	Z53	X54	Y54	Z54	X55	Y55	Z55	X56	Y56	Z56	X57	Y57	Z57	

403	4.02	703.36083984375	960.5630493164062	37.05165863037109	702.1251831054688	1020.232727050781	102.4270706176758	915.6358032226562	1220.159301757812	74.09583282470703	679.6993408203125	1139.286865234375	89.62999725341797	702.7682495117188	1389.001342773438	64.0325927734375	862.118408203125	1340.859619140625	68.45686340332031	667.939697265625	1249.8486328125	137.1348419189453	692.639404296875	1348.160766601562	-36.04087448120117	776.3106689453125	1366.773071289062	-93.06200408935547	771.899658203125	1245.03466796875	-158.4009094238281	825.6089477539062	1047.456176757812	-173.2936553955078	762.7042236328125	1021.78515625	-120.5208358764648	980.1719970703125	840.60205078125	-121.6640319824219	947.8056030273438	817.0675048828125	-178.0215454101562	864.9191284179688	948.81640625	-179.6932983398438	964.3617553710938	749.0478515625	-169.673095703125	764.9794921875	1384.72900390625	227.0267486572266	753.9760131835938	1322.846313476562	292.4389343261719	743.63232421875	1057.182006835938	334.9393920898438	714.4985961914062	1048.545532226562	244.7264862060547	853.9806518554688	827.2970581054688	310.2553100585938	809.2857055664062	814.5791015625	371.2895812988281	763.88671875	988.9872436523438	348.5286865234375	863.7594604492188	654.0276489257812	330.1253967285156	877.2118530273438	725.517822265625	331.9807434082031	822.4077758789062	731.194580078125	373.5081176757812	734.9793090820312	1592.1171875	135.8348236083984	900.3640747070312	1620.771606445312	11.75780963897705	892.520263671875	1625.086547851562	112.5874176025391	719.4769897460938	1577.221313476562	-7.431504726409912	785.6133422851562	913.0902709960938	-75.20306396484375	904.915283203125	949.193603515625	218.2471008300781	906.0590209960938	947.1554565429688	-21.77607345581055	933.388916015625	472.7220153808594	-73.16379547119141	909.4688110351562	603.9242553710938	-80.62316131591797	614.9965209960938	170.3422088623047	-30.0374813079834	775.409912109375	308.7981262207031	-65.26721954345703	787.0659790039062	47.88187789916992	-3.911921501159668	732.4779052734375	76.44219970703125	47.87775421142578	708.7959594726562	93.76188659667969	-61.88776016235352	599.3072509765625	184.7298889160156	42.40644073486328	900.669189453125	450.9457092285156	218.9493560791016	875.5000610351562	42.05527496337891	162.7165222167969	920.1573486328125	333.1705017089844	199.0229949951172	1067.617431640625	32.06382369995117	104.9941177368164	1010.707336425781	29.48880386352539	64.40425872802734	975.6002807617188	28.27143478393555	177.0487060546875	824.863037109375	43.58109664916992	115.9468688964844	713.9884643554688	960.6734008789062	166.4736175537109	903.5988159179688	711.819580078125	257.4870300292969	806.9052734375	911.091552734375	268.1304626464844	1013.835754394531	768.44140625	-134.1207275390625	1028.716430664062	687.6257934570312	-110.3352203369141	nan	nan	nan	nan	nan	nan	nan	nan	nan	nan	nan	nan	
404	4.03	707.6536865234375	961.5465087890625	37.01649856567383	706.8908081054688	1020.864624023438	102.9880142211914	919.8771362304688	1220.914428710938	74.58382415771484	683.94677734375	1139.928955078125	90.51370239257812	706.9420776367188	1389.675048828125	64.91638946533203	866.2935791015625	1341.573486328125	68.93789672851562	672.3569946289062	1250.484008789062	138.2201995849609	696.6807861328125	1348.802368164062	-35.07655715942383	780.1553955078125	1367.426025390625	-92.36496734619141	774.9620971679688	1245.717041015625	-157.6216125488281	826.143310546875	1047.48095703125	-172.0967712402344	763.3681640625	1022.786682128906	-118.8135375976562	976.238037109375	836.4393310546875	-122.0439224243164	942.8536987304688	814.2643432617188	-178.4083557128906	863.4636840820312	948.0670166015625	-178.8634338378906	957.5467529296875	745.6898193359375	-170.4700012207031	769.4915771484375	1385.54931640625	227.7406616210938	759.1046142578125	1323.654052734375	293.3344421386719	752.39404296875	1057.876953125	336.5007629394531	722.5269165039062	1048.575317382812	246.6487579345703	868.0809936523438	830.8416748046875	310.9142456054688	824.1040649414062	816.7610473632812	372.171142578125	773.9940185546875	989.9609985351562	350.1387329101562	883.5603637695312	658.1263427734375	331.0798950195312	894.7740478515625	730.3211059570312	332.8346252441406	839.8087158203125	733.9157104492188	374.3220825195312	739.3618774414062	1592.71484375	136.7861328125	904.5802001953125	1621.44970703125	12.49739742279053	896.8130493164062	1625.63818359375	113.3766555786133	723.6349487304688	1577.94921875	-6.483396053314209	790.4562377929688	914.337890625	-74.99942779541016	908.489990234375	949.2854614257812	219.0942687988281	910.48583984375	948.142333984375	-20.90191841125488	939.6173095703125	474.0692138671875	-73.04859924316406	915.3587036132812	605.2655029296875	-80.58561706542969	626.291748046875	165.3832397460938	-31.43317031860352	783.98583984375	307.572021484375	-65.86306762695312	802.9610595703125	50.01087188720703	-5.629087448120117	746.9567260742188	75.45970153808594	46.26220703125	722.98046875	92.77195739746094	-63.34432601928711	609.7568969726562	178.8156127929688	41.00735092163086	902.1033325195312	450.9060668945312	218.8502197265625	875.47021484375	42.15229415893555	162.6396789550781	921.0867309570312	333.1113586425781	199.1056365966797	1067.668701171875	32.01884460449219	104.9282608032227	1010.729797363281	29.41764450073242	64.34174346923828	975.6196899414062	28.24933815002441	177.0084533691406	824.945556640625	43.72555160522461	115.9057312011719	717.7615356445312	961.3263549804688	166.4593200683594	906.4576416015625	711.6090698242188	257.6086730957031	810.232421875	911.1744995117188	268.3553771972656	1007.642028808594	763.2736206054688	-135.0118560791016	1020.607360839844	682.1436157226562	-112.0065307617188	nan	nan	nan	nan	nan	nan	nan	nan	nan	nan	nan	nan	
405	4.04	711.8095092773438	962.447265625	36.90317916870117	711.4549560546875	1021.455932617188	103.4086227416992	924.0068969726562	1221.608276367188	75.1234130859375	688.0641479492188	1140.531982421875	91.32722473144531	711.0189208984375	1390.312744140625	65.75044250488281	870.3585815429688	1342.233520507812	69.45504760742188	676.6458740234375	1251.087280273438	139.2337036132812	700.6592407226562	1349.428100585938	-34.17815780639648	783.9783935546875	1368.074340820312	-91.68860626220703	777.9825439453125	1246.3916015625	-156.8782196044922	826.5183715820312	1047.49658203125	-171.0428161621094	764.0018920898438	1023.795471191406	-117.1380996704102	972.24755859375	832.5311889648438	-122.665657043457	937.7681274414062	811.6455078125	-178.8892364501953	861.9081420898438	947.4111938476562	-178.1545257568359	950.6358032226562	742.5985107421875	-171.3402404785156	773.8178100585938	1386.31201171875	228.4161529541016	764.0448608398438	1324.415161132812	294.2021179199219	760.9517211914062	1058.519409179688	337.93896484375	730.3992919921875	1048.594116210938	248.4837036132812	882.0232543945312	834.6121215820312	311.5003967285156	838.7503662109375	819.1033325195312	372.9144592285156	783.9343872070312	990.9583740234375	351.6749877929688	903.1802368164062	662.5735473632812	331.7649841308594	912.0961303710938	735.303466796875	333.4528503417969	857.04638671875	736.8884887695312	374.9450073242188	743.6141967773438	1593.28173828125	137.6723022460938	908.6787719726562	1622.081298828125	13.19270896911621	900.9945068359375	1626.168579101562	114.1095733642578	727.6968994140625	1578.634643554688	-5.603999137878418	795.168212890625	915.4859619140625	-74.86015319824219	911.9295654296875	949.3211059570312	219.910888671875	914.827392578125	949.056640625	-20.11018943786621	945.3648681640625	475.2245483398438	-72.8890380859375	920.8005981445312	606.4496459960938	-80.53244018554688	637.677978515625	159.8407592773438	-32.95069885253906	792.35546875	305.9226684570312	-66.50485992431641	818.9710083007812	52.12515258789062	-7.44516658782959	761.55029296875	74.24622344970703	44.58066558837891	737.284423828125	91.52896118164062	-64.88988494873047	620.2754516601562	172.2047119140625	39.46770477294922	903.5397338867188	450.8549499511719	218.7671508789062	875.441162109375	42.24272155761719	162.5662536621094	921.9965209960938	333.0435485839844	199.153076171875	1067.714233398438	31.9802131652832	104.8611145019531	1010.748291015625	29.35451889038086	64.28031158447266	975.6347045898438	28.22547149658203	176.9712677001953	825.0113525390625	43.85391998291016	115.8503570556641	721.3656005859375	961.8912963867188	166.3824462890625	909.1813354492188	711.3554077148438	257.642333984375	813.2977905273438	911.1865844726562	268.4939880371094	1001.386413574219	758.4287719726562	-136.1312561035156	1012.498229980469	677.0396728515625	-113.7883682250977	nan	nan	nan	nan	nan	nan	nan	nan	nan	nan	nan	nan	
406	4.05	715.8314819335938	963.252685546875	36.73602294921875	715.7824096679688	1022.004455566406	103.7013626098633	928.0258178710938	1222.23388671875	75.70025634765625	692.070068359375	1141.087646484375	92.07011413574219	715.0028076171875	1390.906372070312	66.53448486328125	874.3179321289062	1342.8330078125	70.00648498535156	680.8153686523438	1251.646362304688	140.1713256835938	704.5770874023438	1350.034912109375	-33.34220123291016	787.7805786132812	1368.707641601562	-91.03718566894531	780.9486694335938	1247.036010742188	-156.1654052734375	826.7778930664062	1047.508178710938	-170.12548828125	764.6234741210938	1024.792724609375	-115.5201721191406	968.2316284179688	828.8809204101562	-123.510856628418	932.6044921875	809.2066650390625	-179.4542388916016	860.2857666015625	946.8475341796875	-177.5722198486328	943.6840209960938	739.7675170898438	-172.2691040039062	777.9647216796875	1387.000732421875	229.0532836914062	768.7957153320312	1325.105712890625	295.0438232421875	769.2925415039062	1059.099731445312	339.3020935058594	738.0955200195312	1048.586059570312	250.2543487548828	895.7650146484375	838.5897827148438	311.9886169433594	853.1853637695312	821.579833984375	373.515869140625	793.6939086914062	991.9588623046875	353.1402282714844	922.5645141601562	667.362060546875	332.1652526855469	929.1356201171875	740.4654541015625	333.8473510742188	874.0768432617188	740.09375	375.3848266601562	747.7393188476562	1593.818359375	138.4984283447266	912.6566162109375	1622.6552734375	13.84581565856934	905.0742797851562	1626.671752929688	114.7826919555664	731.6646728515625	1579.280029296875	-4.794764995574951	799.7603759765625	916.5188598632812	-74.75844573974609	915.2626953125	949.3164672851562	220.6820526123047	919.0723266601562	949.8827514648438	-19.40930557250977	950.6262817382812	476.18017578125	-72.69094848632812	925.8009033203125	607.4707641601562	-80.46973419189453	649.1227416992188	153.8218231201172	-34.58726119995117	800.500732421875	303.8893737792969	-67.19105529785156	834.919677734375	54.18254089355469	-9.34867000579834	776.1627197265625	72.86184692382812	42.81808471679688	751.6107177734375	90.10272216796875	-66.54473114013672	630.874267578125	165.0030517578125	37.7957763671875	904.963623046875	450.7938232421875	218.7109527587891	875.4127807617188	42.32644271850586	162.4965057373047	922.8880004882812	332.9647827148438	199.17529296875	1067.753051757812	31.94693946838379	104.7978591918945	1010.765258789062	29.30355072021484	64.21941375732422	975.6458129882812	28.20114517211914	176.9374847412109	825.05615234375	43.96508026123047	115.7892074584961	724.858154296875	962.3623046875	166.2694549560547	911.7706909179688	711.0899658203125	257.5941467285156	816.158935546875	911.154541015625	268.5604553222656	995.1272583007812	753.9341430664062	-137.456298828125	1004.4296875	672.3201293945312	-115.6246185302734	nan	nan	nan	nan	nan	nan	nan	nan	nan	nan	nan	nan	
